<svg xmlns="http://www.w3.org/2000/svg" viewBox="0 0 237.2 75.5"><path d="M14.8 7.6v10.3h5.8c1.5 0 2.5-.2 3-.7.7-.6 1.1-1.6 1.1-3.1h.7v9h-.7c-.2-1.3-.4-2.1-.5-2.4-.2-.4-.6-.8-1.2-1.1-.5-.3-1.4-.4-2.5-.4h-5.8v8.6c0 1.1.1 1.8.2 2.1.1.2.3.4.5.6.3.1.8.2 1.5.2h4.5c1.5 0 2.6-.1 3.3-.3.7-.2 1.3-.6 2-1.2.8-.8 1.6-2 2.5-3.6h.8l-2.3 6.5H7.2v-.7h.9c.6 0 1.2-.1 1.8-.4.4-.2.7-.5.8-.9.1-.4.2-1.2.2-2.5V10.7c0-1.6-.2-2.7-.5-3-.4-.5-1.1-.8-2.2-.8h-1v-.7h20.4l.3 5.7h-.8c-.3-1.4-.6-2.3-.9-2.8-.3-.5-.8-.9-1.5-1.2-.5-.2-1.4-.3-2.8-.3h-7.1zm46.3 10.2l5.7 8.3c1.6 2.3 2.7 3.8 3.5 4.4.8.6 1.7.9 2.9 1v.7H61.9v-.7c.8 0 1.3-.1 1.7-.2.3-.1.5-.3.7-.5.2-.2.3-.5.3-.7 0-.3-.1-.6-.2-.9-.1-.2-.4-.8-1.1-1.7l-4.5-6.7-5.5 7c-.6.7-.9 1.2-1.1 1.5-.2.2-.2.4-.2.7 0 .4.2.7.5 1 .4.3 1 .4 2 .5v.7h-9.4v-.7c.7-.1 1.2-.2 1.7-.4.8-.3 1.6-.8 2.3-1.3.7-.6 1.6-1.4 2.5-2.6l6.2-7.7-5.2-7.5C51.2 10 50 8.6 49 8c-1-.6-2.1-1-3.4-1v-.8h12.2v.7c-1 0-1.8.2-2.1.5-.4.3-.6.6-.6 1 0 .5.3 1.2.9 2.1l4.1 6 4.7-5.8c.5-.7.9-1.2 1-1.4.1-.3.2-.5.2-.8s0-.6-.2-.8c-.2-.3-.4-.5-.7-.6-.3-.1-.9-.2-1.9-.2v-.7h9.4v.7c-.7 0-1.3.2-1.8.3-.7.3-1.3.7-1.9 1.2-.6.5-1.4 1.4-2.5 2.8l-5.3 6.6zM96 7.6v10.3h5.8c1.5 0 2.5-.2 3-.7.7-.6 1.1-1.6 1.1-3.1h.7v9h-.6c-.2-1.3-.4-2.1-.5-2.4-.2-.4-.6-.8-1.2-1.1-.5-.3-1.4-.4-2.5-.4H96v8.6c0 1.1.1 1.8.2 2.1.1.2.3.4.5.6.3.1.8.2 1.5.2h4.5c1.5 0 2.6-.1 3.3-.3.7-.2 1.3-.6 2-1.2.8-.8 1.6-2 2.5-3.6h.8l-2.3 6.5H88.5v-.7h.9c.6 0 1.2-.1 1.8-.4.4-.2.7-.5.8-.9.1-.4.2-1.2.2-2.5V10.7c0-1.6-.2-2.7-.5-3-.5-.5-1.2-.8-2.3-.8h-.9v-.7h20.4l.3 5.7h-.8c-.3-1.4-.6-2.3-.9-2.8-.3-.5-.8-.9-1.5-1.2-.5-.2-1.4-.3-2.8-.3H96zm53.2-1.4l.3 6.1h-.7c-.1-1.1-.3-1.8-.6-2.3-.4-.7-.9-1.3-1.6-1.6-.7-.4-1.6-.6-2.6-.6h-3.7v19.9c0 1.6.2 2.6.5 3 .5.5 1.3.8 2.3.8h.9v.7h-11.2v-.7h.9c1.1 0 1.9-.3 2.4-1 .3-.4.4-1.3.4-2.8V7.8h-3.2c-1.2 0-2.1.1-2.6.3-.7.2-1.3.7-1.7 1.4-.5.7-.8 1.6-.9 2.8h-.7l.3-6.1h21.5zm23.7 1.4v10.3h5.8c1.5 0 2.5-.2 3-.7.7-.6 1.1-1.6 1.1-3.1h.7v9h-.7c-.2-1.3-.4-2.1-.5-2.4-.2-.4-.6-.8-1.2-1.1-.5-.3-1.4-.4-2.5-.4h-5.8v8.6c0 1.1.1 1.8.2 2.1.1.2.3.4.5.6.3.1.8.2 1.5.2h4.5c1.5 0 2.6-.1 3.3-.3.7-.2 1.3-.6 2-1.2.8-.8 1.6-2 2.5-3.6h.8l-2.3 6.5h-20.4v-.7h.9c.6 0 1.2-.1 1.8-.4.4-.2.7-.5.8-.9.1-.4.2-1.2.2-2.5V10.7c0-1.6-.2-2.7-.5-3-.5-.5-1.2-.8-2.3-.8h-.9v-.7h20.4l.3 5.7h-.8c-.3-1.4-.6-2.3-.9-2.8-.3-.5-.8-.9-1.5-1.2-.5-.2-1.4-.3-2.8-.3h-7.2zM230 32.2h-7.1l-9-12.1h-2.7v7.6c0 1.6.2 2.7.5 3 .5.6 1.2.8 2.2.8h1v.7h-11.3v-.7h1c1.1 0 1.9-.4 2.4-1.1.3-.4.4-1.3.4-2.8V10.8c0-1.6-.2-2.7-.5-3-.5-.6-1.3-.8-2.3-.8h-1v-.8h9.6c2.8 0 4.9.2 6.2.6 1.3.4 2.5 1.1 3.4 2.2.9 1.1 1.4 2.4 1.4 3.9 0 1.6-.5 3-1.6 4.2-1.1 1.2-2.7 2-4.9 2.5l5.5 7.5c1.2 1.7 2.3 2.8 3.2 3.4.9.6 2.1.9 3.5 1.1v.6zm-18.8-13.4h1c2.5 0 4.4-.5 5.7-1.6 1.3-1.1 1.9-2.4 1.9-4.1 0-1.6-.5-2.9-1.6-4-1-1-2.4-1.5-4.1-1.5-.8 0-1.8.1-3.1.4v10.8z"/><path fill="#1d1d1b" d="M6.9 44.3h223.4v1H6.9z"/><path d="M7.2 68.9L12 57.6l4.6 11.3h-1.1l-1.4-3.7H9.6l-1.4 3.7h-1zm2.8-4.6h3.8l-1.9-4.7-1.9 4.7zm11.8 4.6V58h1.7c1.5 0 2.6.1 3.2.2.6.1 1.2.4 1.6.8.6.5 1.1 1.1 1.4 1.9.3.8.5 1.6.5 2.6s-.2 1.8-.5 2.6-.8 1.4-1.4 1.8c-.5.4-1 .6-1.6.8-.6.2-1.6.2-2.9.2h-2zm1-.9h1.4c1.1 0 1.9-.1 2.4-.2s.9-.3 1.2-.6c.5-.4.8-1 1-1.6.2-.6.3-1.4.3-2.2 0-.8-.1-1.6-.4-2.2-.2-.6-.6-1.2-1-1.6-.3-.3-.8-.5-1.3-.7-.5-.1-1.4-.2-2.6-.2h-1.1V68zM39 69.3L34.7 58h1.1l3.1 8.9 3.3-8.9h1.1L39 69.3zm7.9-.4l4.8-11.3 4.6 11.3h-1.1l-1.4-3.7h-4.4L48 68.9h-1.1zm2.8-4.6h3.8l-1.9-4.7-1.9 4.7zm11.8 4.6V57.5l7.7 9.1V58h.9v11.2l-7.7-9.1v8.8h-.9zM85.7 60c-.5-.5-1.1-.8-1.7-1-.6-.2-1.2-.3-1.8-.3-1.4 0-2.6.4-3.4 1.3-.9.9-1.3 2.1-1.3 3.5 0 .7.1 1.4.3 1.9.2.6.5 1.1 1 1.5.4.4.9.8 1.5 1 .6.2 1.2.3 1.8.3.6 0 1.2-.1 1.8-.3.6-.2 1.2-.5 1.7-.9v1.2c-.5.3-1.1.6-1.7.8-.6.2-1.2.3-1.8.3-.8 0-1.5-.1-2.3-.4-.7-.3-1.3-.7-1.9-1.2-.5-.5-.9-1.1-1.2-1.8-.3-.7-.4-1.5-.4-2.3 0-.8.1-1.6.4-2.3.3-.7.7-1.3 1.2-1.8s1.1-.9 1.8-1.2c.7-.3 1.5-.4 2.3-.4.7 0 1.3.1 1.9.3.6.2 1.1.5 1.6.9l.2.9zm6.1 8.9V58h5.4v.9h-4.4v3.4h4.4v.9h-4.4V68h4.4v.9h-5.4zm11.9 0V58h1.7c1.5 0 2.6.1 3.2.2.6.1 1.2.4 1.6.8.6.5 1.1 1.1 1.4 1.9.3.8.5 1.6.5 2.6s-.2 1.8-.5 2.6-.8 1.4-1.4 1.8c-.5.4-1 .6-1.6.8-.6.2-1.6.2-2.9.2h-2zm1-.9h1.4c1.1 0 1.9-.1 2.4-.2s.9-.3 1.2-.6c.5-.4.8-1 1-1.6.2-.6.3-1.4.3-2.2 0-.8-.1-1.6-.4-2.2-.2-.6-.6-1.2-1-1.6-.3-.3-.8-.5-1.3-.7-.5-.1-1.4-.2-2.6-.2h-1.1V68zm22.1.9V58h1.7c1.5 0 2.6.1 3.2.2.6.1 1.2.4 1.6.8.6.5 1.1 1.1 1.4 1.9.3.8.5 1.6.5 2.6s-.2 1.8-.5 2.6-.8 1.4-1.4 1.8c-.5.4-1 .6-1.6.8-.6.2-1.6.2-2.9.2h-2zm1-.9h1.4c1.1 0 1.9-.1 2.4-.2s.9-.3 1.2-.6c.5-.4.8-1 1-1.6.2-.6.3-1.4.3-2.2 0-.8-.1-1.6-.4-2.2-.2-.6-.6-1.2-1-1.6-.3-.3-.8-.5-1.3-.7-.5-.1-1.4-.2-2.6-.2h-1.1V68zm13.6.9V58h5.4v.9h-4.4v3.4h4.4v.9h-4.4V68h4.4v.9h-5.4zm11.9 0V57.5l7.7 9.1V58h.9v11.2l-7.7-9.1v8.8h-.9zm17.3 0v-10h-3V58h7v.9h-3v10h-1zm9.7 0V58h1v10.9h-1zm6.9-1.8l.8-.5c.2.5.4 1 .8 1.2.4.3.9.4 1.4.4.7 0 1.2-.2 1.6-.6.4-.4.6-1 .6-1.7 0-.5-.1-1-.4-1.3-.3-.3-.8-.7-1.7-1.2-1.1-.6-1.8-1.1-2.2-1.5-.4-.4-.5-1-.5-1.6 0-.8.3-1.4.8-1.9s1.2-.7 2-.7c.5 0 1 .1 1.4.3.4.2.7.6 1 1l-.8.5c-.2-.3-.4-.6-.7-.7-.3-.2-.6-.2-1-.2-.5 0-1 .2-1.3.5-.3.3-.5.7-.5 1.3 0 .8.6 1.5 1.9 2.1.2.1.4.2.5.3.9.5 1.5 1 1.9 1.4.3.5.5 1 .5 1.8 0 1-.3 1.8-.9 2.3-.6.6-1.3.9-2.3.9-.7 0-1.3-.2-1.8-.5a5 5 0 0 1-1.1-1.6zm14.4 1.8v-10h-3V58h7v.9h-3v10h-1zm16.3 0h-1.2l-3.8-5.2h-.6v5.2h-1V58h2c1.2 0 2.1.2 2.7.7.6.5.9 1.2.9 2.2 0 .8-.3 1.5-.8 2s-1.2.7-2.1.7l3.9 5.3zm-5.6-10v4h1c.9 0 1.6-.1 1.9-.4.4-.3.5-.8.5-1.5s-.2-1.3-.6-1.6c-.4-.3-1-.5-1.9-.5h-.9zm13.1 10v-5l-3.6-5.9h1.2l2.9 5 2.9-5h1.1l-3.6 5.9v5h-.9z"/></svg>